<?xml version="1.0" encoding="iso-8859-1"?>
<!-- Generator: Adobe Illustrator 18.0.0, SVG Export Plug-In . SVG Version: 6.00 Build 0)  -->
<!DOCTYPE svg PUBLIC "-//W3C//DTD SVG 1.1//EN" "http://www.w3.org/Graphics/SVG/1.1/DTD/svg11.dtd">
<svg version="1.1" id="Capa_1" xmlns="http://www.w3.org/2000/svg" xmlns:xlink="http://www.w3.org/1999/xlink" x="0px" y="0px"
	 viewBox="0 0 384 384" style="enable-background:new 0 0 384 384;" xml:space="preserve">
<g>
	<path d="M369,273.82H92V41.166c0-8.284-6.716-15-15-15s-15,6.716-15,15V273.82H15c-8.284,0-15,6.716-15,15c0,8.284,6.716,15,15,15
		h47v39.014c0,8.284,6.716,15,15,15s15-6.716,15-15V303.82h277c8.284,0,15-6.716,15-15C384,280.536,377.284,273.82,369,273.82z"/>
	<path d="M129,248.524c11.028,0,20-8.972,20-20c0-4.565-1.554-8.764-4.138-12.134l36.182-87.191l36.966,76.212
		c-1.76,2.977-2.788,6.434-2.788,10.135c0,11.028,8.972,20,20,20c11.028,0,20-8.972,20-20c0-2.79-0.578-5.446-1.614-7.861
		l13.918-17.868c1.081,0.182,2.184,0.299,3.315,0.299c1.035,0,2.045-0.104,3.038-0.256l12.953,17.591
		c-1.103,2.478-1.728,5.213-1.728,8.096c0,11.028,8.972,20,20,20c11.028,0,20-8.972,20-20c0-4.165-1.282-8.034-3.469-11.239
		l27.098-54.34c10.345-0.755,18.536-9.392,18.536-19.926c0-11.028-8.972-20-20-20s-20,8.972-20,20c0,4.156,1.276,8.02,3.455,11.221
		l-27.107,54.359c-0.209,0.016-0.422,0.018-0.629,0.039l-13.51-18.347c0.867-2.237,1.362-4.658,1.362-7.198c0-11.028-8.972-20-20-20
		c-11.028,0-20,8.972-20,20c0,2.445,0.463,4.778,1.269,6.946l-14.519,18.638c-0.7-0.083-1.411-0.133-2.132-0.142l-38.336-79.037
		c2.388-3.294,3.813-7.329,3.813-11.7c0-11.028-8.972-20-20-20c-11.028,0-20,8.972-20,20c0,4.333,1.399,8.337,3.75,11.615
		l-38.293,92.278c-9.798,1.284-17.394,9.667-17.394,19.811C109,239.553,117.972,248.524,129,248.524z"/>
</g>
<g>
</g>
<g>
</g>
<g>
</g>
<g>
</g>
<g>
</g>
<g>
</g>
<g>
</g>
<g>
</g>
<g>
</g>
<g>
</g>
<g>
</g>
<g>
</g>
<g>
</g>
<g>
</g>
<g>
</g>
</svg>
