<?xml version="1.0" encoding="iso-8859-1"?>
<!-- Generator: Adobe Illustrator 19.0.0, SVG Export Plug-In . SVG Version: 6.00 Build 0)  -->
<svg version="1.1" id="Capa_1" xmlns="http://www.w3.org/2000/svg" xmlns:xlink="http://www.w3.org/1999/xlink" x="0px" y="0px"
	 viewBox="0 0 349.6 349.6" style="enable-background:new 0 0 349.6 349.6;" xml:space="preserve">
<g>
	<g>
		<path style="fill:rgb(214,214,214);" d="M298.4,51.2C266.8,19.6,223.2,0,174.8,0c-48.4,0-92,19.6-123.6,51.2C19.6,82.8,0,126.4,0,174.8c0,48.4,19.6,92,51.2,123.6
			c31.6,31.6,75.2,51.2,123.6,51.2s92-19.6,123.6-51.2c31.6-31.6,51.2-75.2,51.2-123.6S330,82.8,298.4,51.2z M252.8,43.2
			c10.8,6.4,21.2,14.4,30,23.2c23.2,22.8,38.8,52.8,43.6,86.4l-73.6,42.4V43.2z M174.8,21.6c20,0,39.2,4,56.8,10.8v84.8l-44.8-26
			l-6.4-3.6L100,41.2C122,28.8,147.6,21.6,174.8,21.6z M231.6,142v32.8v32.8L203.2,224l-28.4,16.4L146.4,224L118,207.6v-32.8V142
			l28.4-16.4l28.4-16.4l8.8,5.2L231.6,142z M66.4,66.4c4.4-4.4,8.8-8,13.6-12l73.2,42.4l-17.6,10l-114,66
			C22.4,131.6,39.2,94,66.4,66.4z M96.4,306.4c-10.8-6.4-21.2-14.4-30-23.2c-22.8-22.8-38.4-52.8-43.2-86.4l73.2-42.4V306.4z
			 M174.8,328c-20,0-39.2-4-56.8-10.8v-84.8l131.6,76C227.6,320.8,202,328,174.8,328z M283.2,283.2c-4.4,4.4-8.8,8-13.6,12
			l-73.2-42.4l17.6-10.4l114-66C327.2,218,310.4,255.6,283.2,283.2z"/>
	</g>
</g>
<g>
</g>
<g>
</g>
<g>
</g>
<g>
</g>
<g>
</g>
<g>
</g>
<g>
</g>
<g>
</g>
<g>
</g>
<g>
</g>
<g>
</g>
<g>
</g>
<g>
</g>
<g>
</g>
<g>
</g>
</svg>
