<?xml version="1.0" encoding="iso-8859-1"?>
<!-- Generator: Adobe Illustrator 18.1.1, SVG Export Plug-In . SVG Version: 6.00 Build 0)  -->
<svg version="1.1" id="Capa_1" xmlns="http://www.w3.org/2000/svg" xmlns:xlink="http://www.w3.org/1999/xlink" x="0px" y="0px"
	 viewBox="0 0 13.719 13.719" style="enable-background:new 0 0 13.719 13.719;" xml:space="preserve">
<g>
	<g>
		<path style="fill:#444444;" d="M12.89,0H0.828C0.371,0,0,0.371,0,0.828v12.063c0,0.456,0.371,0.828,0.828,0.828H12.89
			c0.458,0,0.829-0.372,0.829-0.828V0.828C13.719,0.371,13.348,0,12.89,0z M12.726,12.725H0.993V0.994h11.732L12.726,12.725
			L12.726,12.725z"/>
		<path style="fill:#444444;" d="M5.048,10.286c0.085,0,0.161-0.029,0.211-0.076l4.406-3.202c0.107-0.078,0.107-0.22,0-0.298
			L5.236,3.491C5.157,3.433,5.041,3.417,4.941,3.45c-0.1,0.032-0.166,0.107-0.166,0.189v6.438c0,0.001,0,0.001,0,0.002
			C4.776,10.193,4.898,10.286,5.048,10.286z"/>
	</g>
</g>
<g>
</g>
<g>
</g>
<g>
</g>
<g>
</g>
<g>
</g>
<g>
</g>
<g>
</g>
<g>
</g>
<g>
</g>
<g>
</g>
<g>
</g>
<g>
</g>
<g>
</g>
<g>
</g>
<g>
</g>
</svg>
